<?xml version="1.0" encoding="iso-8859-1"?>
<!-- Generator: Adobe Illustrator 19.0.0, SVG Export Plug-In . SVG Version: 6.00 Build 0)  -->
<svg version="1.1" id="Layer_1" xmlns="http://www.w3.org/2000/svg" xmlns:xlink="http://www.w3.org/1999/xlink" x="0px" y="0px"
	 viewBox="0 0 512 512" style="enable-background:new 0 0 512 512;" xml:space="preserve">
<path style="fill:#75C0C7;" d="M119.919,100.627v183.527h120.224c8.822,0,15.973,6.82,15.973,15.642
	c0,8.822-7.151,15.642-15.973,15.642h-55.907l71.881,47.967H383.02c9.007,0,16.3,7.299,16.769,15.642h16.063h86.764v-278.42H119.919
	z"/>
<rect x="120.346" y="99.908" style="fill:#589095;" width="47.92" height="183.694"/>
<rect x="8.342" y="284.155" style="fill:#FCBB3B;" width="71.951" height="127.218"/>
<rect x="8.342" y="284.155" style="fill:#BD8C2C;" width="23.984" height="127.218"/>
<rect x="120.346" y="155.811" style="fill:#4BAF78;" width="135.779" height="95.841"/>
<rect x="120.346" y="155.811" style="fill:#1E834E;" width="55.907" height="95.841"/>
<path style="fill:#E0DCCD;" d="M183.527,315.438h56.615c8.822,0,15.973-6.82,15.973-15.642c0-8.822-7.151-15.642-15.973-15.642
	H80.293v79.251h16.088l159.735,47.952l128.765-14.292c8.537-0.949,14.997-8.189,14.997-16.778c0-9.311-7.548-16.881-16.858-16.881
	H256.117L184.128,315.4"/>
<g>
	<path style="fill:#A8A59A;" d="M383.02,363.405H256.117l-63.894-47.967h-24.337v16.083l72.257,47.526h126.903
		c9.311,0,16.858,7.745,16.858,17.056c0,0.307-0.068,0.694-0.084,0.998l1.062-0.069c8.537-0.949,14.997-8.172,14.997-16.762
		C399.878,370.959,392.331,363.405,383.02,363.405z"/>
	<path style="fill:#A8A59A;" d="M224.169,299.796c8.822,0,15.973,7.04,15.973,15.863c8.822,0,15.973-6.93,15.973-15.752
		c0-8.822-7.151-15.752-15.973-15.752H80.293v15.642L224.169,299.796L224.169,299.796z"/>
</g>
<rect x="23.984" y="380.09" style="fill:#FFFFFF;" width="16.684" height="15.642"/>
<path d="M383.02,355.647H258.484l-48.418-32.278h30.077c13.12,0,23.794-10.674,23.794-23.794c0-13.12-10.674-23.794-23.794-23.794
	H96.381v15.642h143.761c4.495,0,8.152,3.657,8.152,8.152c0,4.495-3.657,8.152-8.152,8.152h-79.702v23.793h15.642v-8.151h5.785
	l71.88,47.919H383.02c4.983,0,9.038,4.054,9.038,9.038c0,4.611-3.456,8.474-8.039,8.982l-120.198,13.354v-15.273h-15.642v13.453
	l-150.65-45.195h-9.937v-79.834H0v143.902h87.593v-48.426h7.641l160.162,48.049l130.349-14.483
	c12.515-1.391,21.953-11.936,21.953-24.528C407.699,366.718,396.628,355.647,383.02,355.647z M71.951,404.073h-56.31V291.454h56.31
	V404.073z"/>
<rect x="143.902" y="179.878" width="47.967" height="15.642"/>
<g>
	<rect x="143.902" y="212.204" style="fill:#FFFFFF;" width="15.642" height="15.642"/>
	<rect x="167.886" y="212.204" style="fill:#FFFFFF;" width="15.642" height="15.642"/>
	<rect x="191.87" y="212.204" style="fill:#FFFFFF;" width="15.642" height="15.642"/>
	<rect x="215.853" y="212.204" style="fill:#FFFFFF;" width="15.642" height="15.642"/>
	<polygon style="fill:#FFFFFF;" points="331.646,301.054 340.323,314.069 352.456,305.979 352.456,339.422 368.098,339.422 
		368.098,306.422 379.566,314.069 388.242,301.054 359.944,282.188 	"/>
	<polygon style="fill:#FFFFFF;" points="452.137,301.054 423.838,282.188 395.539,301.054 404.216,314.069 416.065,306.169 
		416.065,339.422 431.707,339.422 431.707,306.232 443.46,314.069 	"/>
</g>
<path d="M112.619,92.285V267.47h15.642v-8.342h135.56V148.595h-135.56v-40.668h368.098v16.684h-95.935v15.642h95.935v231.495
	h-81.336v15.642H512V92.285H112.619z M248.179,164.236v79.251H128.261v-79.251H248.179z"/>
<g>
</g>
<g>
</g>
<g>
</g>
<g>
</g>
<g>
</g>
<g>
</g>
<g>
</g>
<g>
</g>
<g>
</g>
<g>
</g>
<g>
</g>
<g>
</g>
<g>
</g>
<g>
</g>
<g>
</g>
</svg>
