<?xml version="1.0" encoding="iso-8859-1"?>
<!-- Generator: Adobe Illustrator 19.0.0, SVG Export Plug-In . SVG Version: 6.00 Build 0)  -->
<svg version="1.1" id="Layer_1" xmlns="http://www.w3.org/2000/svg" xmlns:xlink="http://www.w3.org/1999/xlink" x="0px" y="0px"
	 viewBox="0 0 489.791 489.791" style="enable-background:new 0 0 489.791 489.791;" xml:space="preserve">
<g>
	<path style="fill:#D0F0F0;" d="M62.896,57.311c-4.325,0-7.832-3.506-7.832-7.832V16.238h-6.16
		c-18.329,0-33.242,14.912-33.242,33.241v354.995c8.731-8.103,20.418-13.065,33.242-13.065h6.16V86.189
		c0-4.325,3.506-7.831,7.832-7.831c0.204,0,0.404,0.015,0.604,0.03V57.28C63.3,57.296,63.1,57.311,62.896,57.311z"/>
	<path style="fill:#71D1D1;" d="M244.896,50.825h56.611c4.325,0,7.832,3.506,7.832,7.831s-3.507,7.831-7.832,7.831h-56.611v21.047
		h56.611c4.325,0,7.832,3.506,7.832,7.831v91.774c0,4.325-3.507,7.831-7.832,7.831h-56.611v21.046h56.611
		c4.325,0,7.832,3.506,7.832,7.832c0,4.325-3.507,7.831-7.832,7.831h-56.611v159.728h96.094V16.238h-96.094V50.825z"/>
	<path style="fill:#A0E0E0;" d="M108.782,231.68c-4.325,0-7.831-3.507-7.831-7.831c0-4.325,3.506-7.832,7.831-7.832h136.113v-21.046
		H108.782c-4.325,0-7.831-3.507-7.831-7.831V95.366c0-4.325,3.506-7.831,7.831-7.831h136.113V66.488H108.782
		c-4.325,0-7.831-3.506-7.831-7.831s3.506-7.831,7.831-7.831h136.113V16.238H70.727v33.241c0,4.121-3.185,7.492-7.227,7.801v21.108
		c4.042,0.31,7.227,3.68,7.227,7.801v305.22h174.168V231.68H108.782z"/>
	<rect x="403.643" y="16.238" style="fill:#D0F0F0;" width="7.112" height="23.495"/>
	<rect x="403.643" y="55.396" style="fill:#D0F0F0;" width="7.112" height="164.464"/>
	<rect x="436.485" y="55.396" style="fill:#71D1D1;" width="6.315" height="164.464"/>
	<rect x="436.485" y="16.238" style="fill:#71D1D1;" width="6.315" height="23.495"/>
	<rect x="410.756" y="55.396" style="fill:#A0E0E0;" width="25.729" height="164.464"/>
	<rect x="410.756" y="16.238" style="fill:#A0E0E0;" width="25.729" height="23.495"/>
	<polygon style="fill:#A0E0E0;" points="434.969,473.192 434.969,235.523 423.614,235.523 423.239,473.192 	"/>
	<polygon style="fill:#D0F0F0;" points="423.239,473.192 423.614,235.523 411.475,235.523 411.475,473.192 	"/>
	<rect x="260.198" y="103.198" style="fill:#FBB03B;" width="33.477" height="76.111"/>
	<polygon style="fill:#FCC062;" points="138.866,103.198 138.866,114.252 147.36,114.252 147.36,169.344 138.866,169.344 
		138.866,179.308 260.198,179.308 260.198,103.198 	"/>
	<polygon style="fill:#FDD089;" points="130.372,169.344 130.372,114.252 138.866,114.252 138.866,103.198 116.614,103.198 
		116.614,179.308 138.866,179.308 138.866,169.344 	"/>
	<polygon style="fill:#FFFFFF;" points="130.372,169.344 138.866,169.344 147.36,169.344 147.36,114.252 138.866,114.252 
		130.372,114.252 	"/>
	<path style="fill:#FDD089;" d="M72.073,461.113c-4.325,0-7.831-3.507-7.831-7.832s3.506-7.831,7.831-7.831h147.378v-11.869H72.073
		c-4.325,0-7.831-3.506-7.831-7.832c0-4.325,3.506-7.831,7.831-7.831h147.378v-10.848H48.905c-18.329,0-33.242,14.912-33.242,33.242
		c0,18.33,14.912,33.242,33.242,33.242h170.547v-12.441L72.073,461.113L72.073,461.113z M52.373,453.283
		c0,4.325-3.506,7.832-7.832,7.832c-4.325,0-7.832-3.507-7.832-7.832V425.75c0-4.325,3.506-7.831,7.832-7.831
		c4.325,0,7.832,3.506,7.832,7.831V453.283z"/>
	<path style="fill:#FBB03B;" d="M219.451,417.918H321.29c4.325,0,7.832,3.506,7.832,7.831c0,4.325-3.507,7.832-7.832,7.832H219.451
		v11.869H321.29c4.325,0,7.832,3.506,7.832,7.831c0,4.325-3.507,7.832-7.832,7.832H219.451v12.441h121.538v-45.322
		c0-4.073,3.11-7.417,7.084-7.794V407.07H219.451V417.918z"/>
	<path d="M348.821,0.575H48.905C21.938,0.575,0,22.513,0,49.479v390.834c0,26.967,21.938,48.905,48.905,48.905h299.917
		c4.325,0,7.832-3.506,7.832-7.832v-53.153c0-4.325-3.507-7.831-7.832-7.831c-0.253,0-0.502,0.014-0.748,0.038
		c-3.974,0.377-7.084,3.721-7.084,7.794v45.322H219.451H48.905c-18.329,0-33.242-14.912-33.242-33.242
		c0-18.329,14.912-33.242,33.242-33.242h170.547h128.622h0.748c4.325,0,7.832-3.506,7.832-7.831V8.406
		C356.653,4.081,353.147,0.575,348.821,0.575z M340.989,391.408h-96.094H70.727V86.189c0-4.121-3.185-7.492-7.227-7.801
		c-0.2-0.015-0.4-0.03-0.604-0.03c-4.325,0-7.832,3.507-7.832,7.831v305.22h-6.16c-12.823,0-24.511,4.962-33.242,13.065V49.479
		c0-18.329,14.912-33.241,33.242-33.241h6.16v33.241c0,4.325,3.506,7.832,7.832,7.832c0.204,0,0.404-0.015,0.604-0.03
		c4.042-0.309,7.227-3.68,7.227-7.801V16.238h174.168h96.094L340.989,391.408L340.989,391.408z"/>
	<path d="M44.541,417.918c-4.325,0-7.832,3.506-7.832,7.831v27.532c0,4.325,3.506,7.832,7.832,7.832
		c4.325,0,7.832-3.507,7.832-7.832V425.75C52.373,421.425,48.866,417.918,44.541,417.918z"/>
	<path d="M64.242,425.75c0,4.325,3.506,7.832,7.831,7.832h147.378H321.29c4.325,0,7.832-3.506,7.832-7.832
		c0-4.325-3.507-7.831-7.832-7.831H219.451H72.073C67.748,417.918,64.242,421.425,64.242,425.75z"/>
	<path d="M64.242,453.283c0,4.325,3.506,7.832,7.831,7.832h147.378H321.29c4.325,0,7.832-3.507,7.832-7.832
		s-3.507-7.831-7.832-7.831H219.451H72.073C67.748,445.451,64.242,448.957,64.242,453.283z"/>
	<path d="M100.951,95.366v91.774c0,4.325,3.506,7.831,7.831,7.831h136.113h56.611c4.325,0,7.832-3.507,7.832-7.831V95.366
		c0-4.325-3.507-7.831-7.832-7.831h-56.611H108.782C104.457,87.535,100.951,91.041,100.951,95.366z M293.675,179.308h-33.477
		H138.866h-22.252v-76.111h22.252h121.332h33.477V179.308z"/>
	<path d="M100.951,223.849c0,4.325,3.506,7.831,7.831,7.831h136.113h56.611c4.325,0,7.832-3.507,7.832-7.831
		c0-4.325-3.507-7.832-7.832-7.832h-56.611H108.782C104.457,216.017,100.951,219.523,100.951,223.849z"/>
	<path d="M100.951,58.657c0,4.325,3.506,7.831,7.831,7.831h136.113h56.611c4.325,0,7.832-3.506,7.832-7.831
		s-3.507-7.831-7.832-7.831h-56.611H108.782C104.457,50.825,100.951,54.331,100.951,58.657z"/>
	<path d="M481.959,39.733h-23.495V8.406c0-4.325-3.507-7.832-7.832-7.832h-54.821c-4.325,0-7.832,3.506-7.832,7.832v219.285
		c0,4.325,3.507,7.831,7.832,7.831v245.502c0,4.325,3.507,7.831,7.832,7.831h39.158c4.325,0,7.832-3.506,7.832-7.831V398.18V235.523
		c0.164,0,0.325-0.015,0.487-0.025c4.097-0.253,7.344-3.646,7.344-7.807V55.396h15.663v109.643c0,4.325,3.507,7.832,7.832,7.832
		s7.832-3.507,7.832-7.832V47.564C489.791,43.239,486.284,39.733,481.959,39.733z M410.756,16.238h25.73h6.315v23.495h-6.315h-25.73
		h-7.112V16.238H410.756z M403.643,55.396h7.112h25.73h6.315V219.86h-6.315h-25.73h-7.112V55.396z M411.475,235.523h12.139h11.355
		v237.67h-11.731h-11.763L411.475,235.523L411.475,235.523z"/>
</g>
<g>
</g>
<g>
</g>
<g>
</g>
<g>
</g>
<g>
</g>
<g>
</g>
<g>
</g>
<g>
</g>
<g>
</g>
<g>
</g>
<g>
</g>
<g>
</g>
<g>
</g>
<g>
</g>
<g>
</g>
</svg>
